<svg width="65" height="56" viewBox="0 0 65 56" fill="none" xmlns="http://www.w3.org/2000/svg">
<path d="M18.6037 20.2479C18.6037 15.7135 14.4379 12.0365 9.30091 12.0365C4.1639 12.0365 0 15.7135 0 20.2479C0 24.7856 4.16299 28.4609 9.30091 28.4609C14.4388 28.4609 18.6037 24.7856 18.6037 20.2479Z" fill="black"/>
<path d="M55.6982 13.6404C50.5621 13.6404 46.3973 17.3173 46.3973 21.8518C46.3973 26.3895 50.5621 30.0632 55.6982 30.0632C60.8352 30.0632 65 26.3895 65 21.8518C65 17.3173 60.8361 13.6404 55.6982 13.6404Z" fill="black"/>
<path d="M47.2503 30.9931C46.6037 30.2895 45.6883 29.4749 44.6373 28.6206C41.8326 25.4117 37.4458 23.3356 32.5005 23.3356C28.0991 23.3356 24.1424 24.9809 21.346 27.6028C19.7575 28.8231 18.3451 30.0142 17.4462 30.9939L16.8446 31.6425C14.0381 34.6636 10.5446 38.4223 10.5703 44.8005C10.5951 50.7237 16.0586 55.5456 22.7483 55.5456C26.5692 55.5456 30.0709 53.986 32.3482 51.3682C34.6237 53.986 38.1264 55.5456 41.9509 55.5456C48.6379 55.5456 54.1005 50.7245 54.1262 44.8005C54.1519 38.4223 50.6575 34.6636 47.8519 31.6425L47.2503 30.9931Z" fill="black"/>
<path d="M33.1452 18.0973C38.8057 18.0973 43.3945 14.0461 43.3945 9.04867C43.3945 4.05123 38.8057 0 33.1452 0C27.4847 0 22.896 4.05123 22.896 9.04867C22.896 14.0461 27.4847 18.0973 33.1452 18.0973Z" fill="black"/>
</svg>
