<svg width="65" height="46" viewBox="0 0 65 46" fill="none" xmlns="http://www.w3.org/2000/svg">
<path d="M55.25 16.4286H53.625L42.577 2.46634C41.9679 1.69685 41.1954 1.07567 40.3168 0.648757C39.4381 0.221843 38.4758 0.000123224 37.5009 0H15.7757C13.1178 0 10.728 1.63567 9.74086 4.13076L4.875 16.6606C2.07594 17.3937 0 19.9412 0 23V34.5C0 35.4077 0.727188 36.1429 1.625 36.1429H6.5C6.5 41.5869 10.8652 46 16.25 46C21.6348 46 26 41.5869 26 36.1429H39C39 41.5869 43.3652 46 48.75 46C54.1348 46 58.5 41.5869 58.5 36.1429H63.375C64.2728 36.1429 65 35.4077 65 34.5V26.2857C65 20.8417 60.6348 16.4286 55.25 16.4286ZM16.25 41.0714C13.5616 41.0714 11.375 38.8608 11.375 36.1429C11.375 33.425 13.5616 31.2143 16.25 31.2143C18.9384 31.2143 21.125 33.425 21.125 36.1429C21.125 38.8608 18.9384 41.0714 16.25 41.0714ZM23.5625 16.4286H11.8757L15.7757 6.57143H23.5625V16.4286ZM28.4375 16.4286V6.57143H37.5009L45.3009 16.4286H28.4375ZM48.75 41.0714C46.0616 41.0714 43.875 38.8608 43.875 36.1429C43.875 33.425 46.0616 31.2143 48.75 31.2143C51.4384 31.2143 53.625 33.425 53.625 36.1429C53.625 38.8608 51.4384 41.0714 48.75 41.0714Z" fill="black"/>
</svg>
