<svg width="51" height="46" viewBox="0 0 51 46" fill="none" xmlns="http://www.w3.org/2000/svg">
<path d="M36.3714 0C31.9415 0 27.8813 2.03826 25.2433 5.46012C22.6052 2.03763 18.5451 0 14.1133 0C6.36086 0 0.0298609 6.303 0.000155705 14.05C-0.0289175 22.3875 4.01921 27.3031 7.27288 31.2544L7.97063 32.1036C11.8228 36.8341 23.7662 45.3309 24.2718 45.6903C24.5613 45.8968 24.9039 46 25.2439 46C25.5846 46 25.9265 45.8961 26.2166 45.6903C26.7222 45.3309 38.6656 36.8341 42.5178 32.1036L43.2149 31.2544C46.468 27.3031 50.5167 22.3875 50.4876 14.05C50.4573 6.303 44.1257 0 36.3714 0Z" fill="black"/>
</svg>
