<svg width="65" height="46" viewBox="0 0 65 46" fill="none" xmlns="http://www.w3.org/2000/svg">
<path d="M24.0144 3.44443L33.8126 12.6273C33.8401 12.6546 33.8685 12.6811 33.8976 12.7069L33.9768 12.7811L33.9843 12.7741C34.276 12.9967 34.6435 13.1365 35.0502 13.1365C35.9861 13.1365 36.7453 12.425 36.7453 11.5471C36.7453 10.9745 36.4195 10.477 35.9344 10.1974L26.1837 1.05988C25.8728 0.727936 25.4228 0.514709 24.9144 0.514709C23.9785 0.514709 23.2193 1.22625 23.2193 2.10337C23.2193 2.66963 23.5377 3.16403 24.0144 3.44443Z" fill="black"/>
<path d="M35.0494 35.2848V15.7281H12.631C12.5085 15.7281 12.3893 15.757 12.2709 15.7991L3.13107 10.8543L3.12357 10.866C2.82855 10.7231 2.49936 10.6348 2.14433 10.6348C0.960074 10.6348 0 11.5346 0 12.6437C0 13.3537 0.39503 13.9746 0.987576 14.3323L0.971741 14.3581L10.2325 19.3693C9.87493 20.8283 9.66158 22.6201 9.66158 24.5641C9.66158 28.6732 10.6058 32.1161 11.8817 33.1057L6.66135 41.5808C6.27465 42.0456 6.03546 42.622 6.03546 43.257C6.03546 44.7714 7.34556 46 8.96236 46C9.90743 46 10.7392 45.5728 11.2742 44.9206L11.3242 44.948L17.4305 35.0356L23.5368 44.9472L23.5868 44.9206C24.1219 45.5728 24.9536 46 25.8987 46C27.5154 46 28.8255 44.7722 28.8255 43.257C28.8255 42.6228 28.5864 42.0456 28.1997 41.5808L24.256 35.1801C26.312 35.291 28.5447 35.352 30.8824 35.352C32.3167 35.352 33.7101 35.3285 35.0494 35.2848Z" fill="black"/>
<path d="M49.7388 33.2548C50.6981 32.7479 51.4989 30.8734 51.9031 28.3303L38.3829 15.6593V33.3782L33.3292 41.5808C32.9425 42.0455 32.7033 42.622 32.7033 43.257C32.7033 44.7714 34.0134 46 35.6302 46C36.5753 46 37.407 45.5728 37.9421 44.9206L37.9921 44.9479L44.0984 35.0356L50.2055 44.9471L50.2555 44.9206C50.7906 45.5728 51.6223 46 52.5674 46C54.1842 46 55.4943 44.7722 55.4943 43.257C55.4943 42.6227 55.2551 42.0455 54.8684 41.5808L49.7388 33.2548Z" fill="black"/>
<path d="M65 16.4981C65 15.8499 64.6592 15.2797 64.1408 14.9243L60.8855 11.8735V8.69857C60.8855 7.50512 60.153 6.48273 59.0929 5.9727L54.8809 3.69359L54.8693 3.71234C54.5151 3.51551 54.1209 3.37961 53.6975 3.31947L51.6523 0L47.4037 6.89668L40.5757 13.2951L52.1757 24.1665C52.1624 23.337 52.1182 22.5333 52.034 21.778L54.3225 19.6333H60.8855H62.5523V19.6122L64.3642 17.9142L64.3558 17.9064C64.7508 17.5502 65 17.0527 65 16.4981Z" fill="black"/>
</svg>
